<svg xmlns="http://www.w3.org/2000/svg" viewBox="0 0 1200 800" width="1200" height="800">
<rect width="1200" height="800" fill="#3B2A24"/>
<rect y="520" width="1200" height="280" fill="#5A3E32"/>
<g fill="#6A4A3C"><rect x="80" y="60" width="160" height="300" rx="80"/><rect x="380" y="60" width="160" height="300" rx="80"/><rect x="680" y="60" width="160" height="300" rx="80"/><rect x="980" y="60" width="160" height="300" rx="80"/></g>
<g fill="#E9B872" fill-opacity=".25"><rect x="100" y="80" width="120" height="260" rx="60"/><rect x="400" y="80" width="120" height="260" rx="60"/><rect x="700" y="80" width="120" height="260" rx="60"/><rect x="1000" y="80" width="120" height="260" rx="60"/></g>
<line x1="300" y1="0" x2="300" y2="170" stroke="#1E1512" stroke-width="3"/><path d="M260 210 L280 170 H320 L340 210Z" fill="#F2C572"/><ellipse cx="300" cy="230" rx="80" ry="22" fill="#F2C572" fill-opacity=".25"/><line x1="600" y1="0" x2="600" y2="170" stroke="#1E1512" stroke-width="3"/><path d="M560 210 L580 170 H620 L640 210Z" fill="#F2C572"/><ellipse cx="600" cy="230" rx="80" ry="22" fill="#F2C572" fill-opacity=".25"/><line x1="900" y1="0" x2="900" y2="170" stroke="#1E1512" stroke-width="3"/><path d="M860 210 L880 170 H920 L940 210Z" fill="#F2C572"/><ellipse cx="900" cy="230" rx="80" ry="22" fill="#F2C572" fill-opacity=".25"/>
<ellipse cx="250" cy="560" rx="150" ry="32" fill="#F4EEE4"/><rect x="242" y="580" width="16" height="140" fill="#2A1D19"/><rect x="190" y="714" width="120" height="12" rx="6" fill="#2A1D19"/><circle cx="190" cy="552" r="20" fill="#fff"/><circle cx="310" cy="552" r="20" fill="#fff"/><rect x="246" y="505" width="8" height="40" fill="#C9A96E"/><circle cx="250" cy="500" r="8" fill="#FFD27F"/><ellipse cx="600" cy="560" rx="150" ry="32" fill="#F4EEE4"/><rect x="592" y="580" width="16" height="140" fill="#2A1D19"/><rect x="540" y="714" width="120" height="12" rx="6" fill="#2A1D19"/><circle cx="540" cy="552" r="20" fill="#fff"/><circle cx="660" cy="552" r="20" fill="#fff"/><rect x="596" y="505" width="8" height="40" fill="#C9A96E"/><circle cx="600" cy="500" r="8" fill="#FFD27F"/><ellipse cx="950" cy="560" rx="150" ry="32" fill="#F4EEE4"/><rect x="942" y="580" width="16" height="140" fill="#2A1D19"/><rect x="890" y="714" width="120" height="12" rx="6" fill="#2A1D19"/><circle cx="890" cy="552" r="20" fill="#fff"/><circle cx="1010" cy="552" r="20" fill="#fff"/><rect x="946" y="505" width="8" height="40" fill="#C9A96E"/><circle cx="950" cy="500" r="8" fill="#FFD27F"/>
<rect x="60" y="500" width="70" height="160" rx="12" fill="#8E3B3B"/><rect x="1070" y="500" width="70" height="160" rx="12" fill="#8E3B3B"/><g font-family="Helvetica,Arial,sans-serif"><rect x="32" y="722" width="250" height="46" rx="8" fill="#0F1B24" fill-opacity=".72"/><text x="52" y="752" font-size="20" font-weight="700" fill="#fff" letter-spacing="1.5">SAMPLE</text><text x="148" y="752" font-size="20" fill="#DCE6EE">Restaurant</text></g></svg>